<svg xmlns="http://www.w3.org/2000/svg" viewBox="0 0 1600 1000" role="img" aria-labelledby="title desc">
  <title id="title">Healthcare technology visual</title>
  <desc id="desc">Medical cross and connected nodes for healthcare IT staffing.</desc>
  <defs>
    <linearGradient id="bg" x1="0" y1="0" x2="1" y2="1">
      <stop offset="0%" stop-color="#0b0b0b"/>
      <stop offset="100%" stop-color="#272727"/>
    </linearGradient>
  </defs>
  <rect width="1600" height="1000" fill="url(#bg)"/>
  <rect x="100" y="100" width="1400" height="800" rx="34" fill="#121215" stroke="#ff5455" stroke-width="2"/>
  <rect x="690" y="250" width="220" height="500" rx="35" fill="#ff1f20"/>
  <rect x="550" y="390" width="500" height="220" rx="35" fill="#ff1f20"/>
  <circle cx="370" cy="260" r="18" fill="#bed0ff"/>
  <circle cx="430" cy="340" r="12" fill="#bed0ff"/>
  <circle cx="310" cy="360" r="14" fill="#bed0ff"/>
  <circle cx="1220" cy="300" r="16" fill="#bed0ff"/>
  <circle cx="1300" cy="370" r="12" fill="#bed0ff"/>
  <circle cx="1180" cy="420" r="14" fill="#bed0ff"/>
  <line x1="370" y1="260" x2="430" y2="340" stroke="#5e8afc" stroke-width="4"/>
  <line x1="370" y1="260" x2="310" y2="360" stroke="#5e8afc" stroke-width="4"/>
  <line x1="430" y1="340" x2="310" y2="360" stroke="#5e8afc" stroke-width="4"/>
  <line x1="1220" y1="300" x2="1300" y2="370" stroke="#5e8afc" stroke-width="4"/>
  <line x1="1220" y1="300" x2="1180" y2="420" stroke="#5e8afc" stroke-width="4"/>
  <line x1="1300" y1="370" x2="1180" y2="420" stroke="#5e8afc" stroke-width="4"/>
  <text x="190" y="205" fill="#fafafa" font-family="Arial, sans-serif" font-size="52" font-weight="700">HEALTHCARE IT SUPPORT</text>
  <text x="190" y="258" fill="#b7b7b7" font-family="Arial, sans-serif" font-size="30">Data privacy, interoperability, and high-availability systems</text>
</svg>
