<svg xmlns="http://www.w3.org/2000/svg" viewBox="0 0 1600 1000" role="img" aria-labelledby="title desc">
  <title id="title">Retail and omnichannel visual</title>
  <desc id="desc">Storefront and digital channel cards representing retail technology teams.</desc>
  <defs>
    <linearGradient id="bg" x1="0" y1="0" x2="1" y2="1">
      <stop offset="0%" stop-color="#f5f5f5"/>
      <stop offset="100%" stop-color="#e6e6e6"/>
    </linearGradient>
    <linearGradient id="card" x1="0" y1="0" x2="0" y2="1">
      <stop offset="0%" stop-color="#ffffff"/>
      <stop offset="100%" stop-color="#f5f5f5"/>
    </linearGradient>
  </defs>
  <rect width="1600" height="1000" fill="url(#bg)"/>
  <rect x="120" y="120" width="1360" height="760" rx="32" fill="url(#card)" stroke="#d3d3d3" stroke-width="2"/>
  <rect x="220" y="230" width="520" height="440" rx="24" fill="#ffffff" stroke="#d3d3d3"/>
  <rect x="275" y="280" width="410" height="70" rx="12" fill="#ff1f20"/>
  <rect x="275" y="390" width="160" height="220" rx="14" fill="#eff3ff" stroke="#dbe4fe"/>
  <rect x="465" y="390" width="220" height="100" rx="14" fill="#eff3ff" stroke="#dbe4fe"/>
  <rect x="465" y="510" width="220" height="100" rx="14" fill="#eff3ff" stroke="#dbe4fe"/>
  <rect x="820" y="230" width="560" height="180" rx="24" fill="#ffffff" stroke="#d3d3d3"/>
  <rect x="820" y="450" width="560" height="180" rx="24" fill="#ffffff" stroke="#d3d3d3"/>
  <rect x="820" y="670" width="560" height="180" rx="24" fill="#ffffff" stroke="#d3d3d3"/>
  <rect x="860" y="290" width="180" height="18" rx="9" fill="#3961f8"/>
  <rect x="860" y="325" width="360" height="12" rx="6" fill="#727272"/>
  <rect x="860" y="510" width="180" height="18" rx="9" fill="#3961f8"/>
  <rect x="860" y="545" width="360" height="12" rx="6" fill="#727272"/>
  <rect x="860" y="730" width="180" height="18" rx="9" fill="#3961f8"/>
  <rect x="860" y="765" width="360" height="12" rx="6" fill="#727272"/>
  <text x="220" y="190" fill="#1a1a1a" font-family="Arial, sans-serif" font-size="50" font-weight="700">RETAIL TECHNOLOGY OPERATIONS</text>
  <text x="220" y="900" fill="#535353" font-family="Arial, sans-serif" font-size="28">Omnichannel systems, analytics, customer journeys, and platform reliability</text>
</svg>
